<svg xmlns="http://www.w3.org/2000/svg" xmlns:xlink="http://www.w3.org/1999/xlink" version="1.1" id="Your_Icon" x="0px" y="0px" width="100px" height="100px" viewBox="0 0 100 100" enable-background="new 0 0 100 100" xml:space="preserve">
<path d="M-510.372-240.479c-5.684,5.687-5.684,14.938,0,20.625c2.756,2.753,6.418,4.271,10.314,4.271  c3.408,0,6.637-1.161,9.237-3.297v-22.573c-2.601-2.134-5.829-3.296-9.237-3.296C-503.954-244.75-507.616-243.233-510.372-240.479z   M-514.496-253.083h-27.366c-2.877,0-5.208,2.332-5.208,5.208s2.332,5.208,5.208,5.208h17.768c1.263-2.421,2.898-4.666,4.885-6.651  C-517.765-250.762-516.181-252.017-514.496-253.083z M-505.918-257.25c5.178,0,9.375-4.197,9.375-9.375S-500.74-276-505.918-276  c-5.178,0-9.375,4.197-9.375,9.375S-511.096-257.25-505.918-257.25z M-469.987-253.083h-15.635c1.687,1.066,3.27,2.321,4.714,3.766  c1.986,1.985,3.621,4.229,4.885,6.651h6.036c2.877,0,5.209-2.332,5.209-5.208S-467.11-253.083-469.987-253.083z M-521.029-213.025  v30.775c0,3.451,2.799,6.25,6.25,6.25c3.452,0,6.25-2.799,6.25-6.25v-22.188c-3.981-1.306-7.631-3.53-10.68-6.579  C-519.853-211.661-520.459-212.33-521.029-213.025z M-503.32-203.286v21.036c0,3.451,2.799,6.25,6.25,6.25s6.25-2.799,6.25-6.25  v-22.445c-2.923,1.058-6.037,1.611-9.237,1.611C-501.157-203.084-502.246-203.157-503.32-203.286z"/>
<path d="M-458.812-197.757l-19.12-19.12c-0.588-0.589-1.268-1.028-1.99-1.333c2.137-3.584,3.302-7.676,3.302-11.957  c0-6.261-2.438-12.146-6.866-16.573c-4.427-4.427-10.312-6.865-16.571-6.865c-6.262,0-12.146,2.438-16.573,6.865  c-4.427,4.427-6.866,10.312-6.866,16.573c0,6.26,2.438,12.145,6.866,16.572c4.427,4.427,10.312,6.865,16.573,6.865  c4.279,0,8.37-1.164,11.955-3.301c0.306,0.723,0.744,1.402,1.333,1.991l19.12,19.12c1.22,1.221,2.82,1.831,4.419,1.831  c1.6,0,3.199-0.61,4.419-1.831C-456.37-191.359-456.37-195.316-458.812-197.757z M-512.949-217.277  c-3.443-3.443-5.339-8.021-5.339-12.889c0-4.87,1.896-9.447,5.339-12.891c3.443-3.442,8.021-5.34,12.891-5.34  c4.868,0,9.444,1.897,12.89,5.34c3.442,3.443,5.339,8.021,5.339,12.891c0,4.868-1.896,9.446-5.339,12.889  c-3.445,3.442-8.021,5.34-12.89,5.34C-504.928-211.938-509.505-213.835-512.949-217.277z"/>
<path d="M-331.138-232.96v47.765h-66.667v-75.862h15.518c0,0.001,0,0.002,0,0.003c0,3.491,2.831,6.322,6.321,6.322h9.34  c-0.005-0.194-0.029-0.383-0.029-0.578v-14.942h-31.149c-5.078,0-9.195,4.117-9.195,9.195v75.862c0,5.078,4.117,9.195,9.195,9.195  h66.667c5.078,0,9.195-4.117,9.195-9.195v-54.394C-324.423-236.708-327.563-234.417-331.138-232.96z"/>
<path d="M-322.978-276c-0.197,0-0.386,0.026-0.574,0.059c-0.189-0.033-0.378-0.059-0.575-0.059h-6.896  c-1.905,0-3.448,1.543-3.448,3.448s1.543,3.448,3.448,3.448h4.598v13.793c0,7.606-6.188,13.793-13.793,13.793h-2.299  c-7.606,0-13.793-6.188-13.793-13.793v-13.793h4.598c1.904,0,3.448-1.543,3.448-3.448s-1.544-3.448-3.448-3.448h-6.896  c-0.198,0-0.387,0.026-0.575,0.059c-0.188-0.033-0.377-0.059-0.574-0.059c-1.905,0-3.448,1.543-3.448,3.448v17.241  c0,11.02,8.668,20.03,19.54,20.631v20.749c0,7.605-6.188,13.793-13.793,13.793c-7.478,0-13.793-5.001-13.793-10.92v-1.028  c5.939-1.537,10.345-6.926,10.345-13.339c0-7.606-6.188-13.793-13.793-13.793c-7.606,0-13.794,6.187-13.794,13.793  c0,6.413,4.405,11.802,10.346,13.339v1.028c0,9.824,9.281,17.816,20.689,17.816c11.407,0,20.689-9.282,20.689-20.689v-21.002  c9.769-1.649,17.241-10.147,17.241-20.378v-17.241C-319.529-274.457-321.072-276-322.978-276z M-381.599-225.425  c0-3.804,3.094-6.897,6.897-6.897c3.803,0,6.896,3.093,6.896,6.897c0,3.803-3.094,6.896-6.896,6.896  C-378.505-218.528-381.599-221.622-381.599-225.425z"/>
<g>
	<path d="M-185.523-263.467v-8.961c0-1.973-1.599-3.571-3.572-3.571c-1.973,0-3.571,1.599-3.571,3.571v8.961h-66.724v-8.961   c0-1.973-1.599-3.571-3.571-3.571s-3.571,1.599-3.571,3.571v8.961H-276v19.047v57.143c0,5.26,4.265,9.523,9.523,9.523h80.953   c5.259,0,9.523-4.264,9.523-9.523v-57.143v-19.047H-185.523z M-185.523-187.277h-80.953v-57.143h80.953V-187.277z"/>
	<path d="M-256.791-224.35c0.21,0,0.449-0.031,0.723-0.096c0.27-0.062,0.762-0.197,1.474-0.406l4.581-1.319v30.118   c0,1.465,0.772,2.195,2.321,2.195h8.281v-41.285c0-0.628-0.21-1.15-0.627-1.569c-0.42-0.417-0.941-0.626-1.568-0.626   c-0.628,0-1.465,0.104-2.51,0.313c-1.048,0.209-2.219,0.501-3.514,0.878c-1.297,0.376-2.646,0.806-4.047,1.287   c-1.402,0.481-2.752,0.994-4.047,1.537l-2.572,1.066v6.526c0,0.502,0.145,0.858,0.439,1.067   C-257.565-224.455-257.209-224.35-256.791-224.35z"/>
	<path d="M-225.482-193.857h24.471v-6.588c0-1.465-0.774-2.197-2.322-2.197h-12.863c0.211-0.959,0.566-1.838,1.067-2.635   c0.502-0.795,1.107-1.545,1.82-2.258c0.711-0.711,1.483-1.389,2.32-2.041c0.838-0.646,1.674-1.307,2.511-1.977   c0.962-0.75,1.902-1.566,2.823-2.445c0.92-0.879,1.736-1.852,2.447-2.918c0.711-1.064,1.286-2.268,1.726-3.607   c0.439-1.338,0.659-2.887,0.659-4.643c0-3.807-1.172-6.786-3.515-8.941c-2.343-2.153-6.044-3.23-11.104-3.23   c-2.552,0-4.874,0.24-6.965,0.721c-2.093,0.481-3.683,0.973-4.77,1.475v4.871c0,1.479,0.794,2.219,2.385,2.219   c0.46,0,1.307,0,2.541,0c1.233,0,2.646,0,4.235,0c2.134,0,3.754,0.22,4.863,0.657c1.105,0.437,1.662,1.532,1.662,3.281   c0,0.709-0.094,1.346-0.282,1.908c-0.188,0.561-0.523,1.146-1.005,1.75c-0.48,0.604-1.139,1.271-1.976,2s-1.903,1.615-3.2,2.656   c-1.13,0.92-2.28,1.898-3.451,2.939s-2.227,2.23-3.168,3.562c-0.941,1.334-1.716,2.846-2.321,4.533   c-0.608,1.689-0.909,3.617-0.909,5.781v2.939C-227.803-194.586-227.03-193.857-225.482-193.857z"/>
</g>
<g>
	<path d="M-64.15-241.179c-1.732-1.731-4.537-1.73-6.269-0.001l-16.812,16.809l-10.161-10.161c-1.729-1.731-4.538-1.731-6.268,0   c-1.73,1.73-1.73,4.537,0,6.267l13.294,13.295c0.866,0.866,2.001,1.299,3.135,1.299s2.269-0.433,3.134-1.298l19.945-19.941   C-62.421-236.642-62.421-239.448-64.15-241.179z"/>
	<path d="M-53.789-246.568l5.809-5.808l-6.269-6.267l-5.831,5.832c-7.424-6.005-16.863-9.613-27.132-9.613   c-23.826,0-43.212,19.385-43.212,43.212S-111.038-176-87.212-176S-44-195.385-44-219.212   C-44-229.584-47.676-239.111-53.789-246.568z M-87.212-184.864c-18.939,0-34.348-15.408-34.348-34.348   c0-18.94,15.408-34.348,34.348-34.348s34.348,15.408,34.348,34.348C-52.864-200.272-68.272-184.864-87.212-184.864z"/>
	<path d="M-92.753-264.92h11.08c3.06,0,5.54-2.48,5.54-5.54s-2.48-5.54-5.54-5.54h-11.08c-3.062,0-5.54,2.48-5.54,5.54   S-95.814-264.92-92.753-264.92z"/>
</g>
<g>
	<path d="M50-276c-27.57,0-50,22.43-50,50s22.43,50,50,50s50-22.43,50-50S77.57-276,50-276z M49.629-187.9   c-1.884,0-3.408-1.526-3.408-3.408c0-1.885,1.524-3.41,3.408-3.41s3.409,1.525,3.409,3.41   C53.038-189.427,51.513-187.9,49.629-187.9z M46.52-221.597l0.012,0.011c-0.001-0.001-0.005-0.002-0.006-0.004   S46.522-221.595,46.52-221.597z M75.922-244.554l-19.754,19.75l-18.523-18.523c-1.773-1.776-4.654-1.776-6.428,0   c-1.775,1.774-1.775,4.653,0,6.427l14.842,14.841l-24.972,24.973C13.679-204.493,9.091-214.721,9.091-226   c0-22.558,18.352-40.909,40.909-40.909v29.974l2.83,2.614l16.663-16.663c1.777-1.773,4.654-1.774,6.43,0.001   C77.697-249.207,77.697-246.329,75.922-244.554z M84.287-222.56c-1.882,0-3.408-1.526-3.408-3.409c0-1.885,1.526-3.409,3.408-3.409   c1.885,0,3.41,1.524,3.41,3.409C87.697-224.086,86.172-222.56,84.287-222.56z"/>
	<circle cx="17.242" cy="-225.969" r="3.409"/>
</g>
<g>
	<polygon points="-396.909,-60.327 -377.493,-60.327 -375.678,-67.163 -396.909,-67.163  "/>
	<path d="M-372.344-79.72c0.218-0.815,0.589-1.576,1.082-2.255h-25.647v6.836h23.35L-372.344-79.72z"/>
	<polygon points="-346.778,-106.588 -346.778,-111.598 -396.909,-111.598 -396.909,-104.762 -348.605,-104.762  "/>
	<path d="M-338.805-49.133h-66.081v-79.753h15.383c0,3.461,2.806,6.267,6.266,6.267h22.787c3.46,0,6.266-2.806,6.266-6.267h15.38   v14.324l3.705-3.705c1.517-1.516,3.388-2.523,5.41-2.947v-7.672c0-5.033-4.081-9.114-9.115-9.114h-66.081   c-5.034,0-9.114,4.081-9.114,9.114v79.753c0,5.034,4.08,9.115,9.114,9.115h66.081c5.034,0,9.115-4.081,9.115-9.115v-25.335   l-9.115,9.115V-49.133z"/>
	<polygon points="-356.583,-96.786 -396.909,-96.786 -396.909,-89.95 -363.419,-89.95  "/>
	<path d="M-315.792-105.106l-7.467-7.467c-2.053-2.054-4.952-2.913-7.01-0.856l-35.468,35.465l-5.397,20.323l20.335-5.384   l35.474-35.476C-313.275-100.553-313.738-103.056-315.792-105.106z M-367.264-61.109l1.81-6.819l5.005,5.012L-367.264-61.109z    M-327.461-101.3l-29.606,29.602l-3.532-3.534l29.26-29.271c0.516-0.518,2.357,0.149,2.871,0.666   C-327.952-103.323-326.95-101.814-327.461-101.3z"/>
</g>
<path d="M-245.442-51.583c0-10.213,8.309-18.521,18.521-18.521h28.767v-24.831c0-8.411-5.087-16.731-11.581-18.941l-6.56-2.232  v-4.604h2.235v-12.348c0-2.717-2.222-4.939-4.938-4.939h-29.635c-2.717,0-4.939,2.223-4.939,4.939v12.348h2.087v4.604l-6.559,2.232  c-6.494,2.21-11.58,10.529-11.58,18.941v40.877c0,8.852,7.201,16.053,16.052,16.053h14.096  C-243.134-41.392-245.442-46.217-245.442-51.583z M-262.216-85.729v-9.206c0-5.715,3.456-10.872,6.559-11.929l9.069-3.087  c0.039-0.013,0.072-0.036,0.111-0.051c0.129-0.049,0.251-0.108,0.374-0.171c0.099-0.05,0.196-0.099,0.289-0.157  c0.106-0.066,0.202-0.142,0.302-0.218c0.091-0.072,0.183-0.144,0.27-0.224c0.087-0.083,0.163-0.172,0.241-0.263  c0.077-0.088,0.155-0.175,0.224-0.27c0.07-0.101,0.131-0.206,0.192-0.312c0.057-0.099,0.114-0.195,0.163-0.299  c0.051-0.111,0.089-0.226,0.129-0.342c0.038-0.113,0.078-0.226,0.106-0.342c0.025-0.11,0.041-0.223,0.057-0.334  c0.019-0.135,0.036-0.266,0.041-0.402c0.001-0.042,0.012-0.08,0.012-0.123v-7.255h20.374v7.255c0,1.628,1.056,2.994,2.515,3.492  l-0.004,0.015l9.07,3.087c3.103,1.057,6.56,6.215,6.56,11.929v7.058c-5.668-1.271-16.358-2.673-27.394,1.148  C-246.484-82.044-257.37-84.23-262.216-85.729z"/>
<path d="M-193.583-65.165h-16.669h-16.669c-7.502,0-13.582,6.081-13.582,13.582c0,7.502,6.08,13.583,13.582,13.583h16.669h16.669  C-186.081-38-180-44.081-180-51.583C-180-59.084-186.081-65.165-193.583-65.165z M-226.921-45.408c-3.403,0-6.174-2.771-6.174-6.175  c0-3.403,2.771-6.174,6.174-6.174h16.669v12.349H-226.921z"/>
<g>
	<path d="M50,0C22.43,0,0,22.43,0,50s22.43,50,50,50s50-22.43,50-50S77.57,0,50,0z M50,89.743   c-21.915,0-39.743-17.828-39.743-39.743S28.085,10.257,50,10.257S89.743,28.085,89.743,50S71.915,89.743,50,89.743z"/>
	<circle cx="37.82" cy="35.975" r="6.411"/>
	<circle cx="62.481" cy="35.975" r="6.411"/>
	<path d="M71.557,53.045C70.067,63.623,60.982,71.795,50,71.795s-20.067-8.172-21.557-18.75h-7.772   C22.198,67.879,34.769,79.487,50,79.487s27.802-11.608,29.329-26.442H71.557z"/>
</g>
<g>
	<path d="M-56.981-138h-49.04c-4.925,0-8.917,3.992-8.917,8.916v2.325l4.543,4.543l4.374,4.373v-11.241h48.644l-27.295,15.903   c-1.37,0.799-2.214,2.265-2.214,3.852v47.118h-19.135v-10.264l-4.374,4.373l-4.543,4.543v1.348c0,4.924,3.992,8.916,8.917,8.916   h19.135v10.837c0,1.596,0.853,3.07,2.237,3.865C-83.962-38.198-83.195-38-82.428-38c0.775,0,1.551-0.202,2.244-0.606l25.975-15.135   c3.566-1.166,6.144-4.515,6.144-8.47v-66.873C-48.065-134.008-52.058-138-56.981-138z"/>
	<polygon points="-114.938,-73.016 -106.021,-81.932 -92.795,-95.158 -106.021,-108.385 -114.938,-117.302 -115.124,-117.487    -115.124,-106.304 -135,-106.304 -135,-84.013 -115.124,-84.013 -115.124,-72.829  "/>
</g>
<path d="M60.333-69.651v-57.237c0-6.127-4.984-11.111-11.111-11.111c-6.126,0-11.11,4.984-11.11,11.111v57.237  c-4.15,3.323-6.667,8.397-6.667,13.874C31.444-45.976,39.42-38,49.222-38C59.024-38,67-45.976,67-55.777  C67-61.254,64.482-66.328,60.333-69.651z M44.777-89.637h4.444v-4.444h-4.444v-8.889h4.444v-4.444h-4.444v-8.889h4.444v-4.444  h-4.444v-6.142c0-2.455,1.99-4.444,4.444-4.444c2.455,0,4.445,1.989,4.445,4.444v41.111h-8.89V-89.637z"/>
<g>
	<path d="M-314,27.79v-5.212c0-5.138-4.165-9.303-9.303-9.303h-81.395c-5.138,0-9.303,4.165-9.303,9.303v5.212H-314z"/>
	<path d="M-414,44.381v34.01c0,5.137,4.165,9.302,9.303,9.302h81.395c5.138,0,9.303-4.165,9.303-9.302v-34.01H-414z    M-365.443,74.322h-35.089c-1.928,0-3.488-1.562-3.488-3.488c0-1.928,1.561-3.489,3.488-3.489h35.089   c1.929,0,3.488,1.562,3.488,3.489C-361.955,72.761-363.515,74.322-365.443,74.322z M-327.276,61.255h-73.256   c-1.928,0-3.488-1.561-3.488-3.488c0-1.927,1.561-3.488,3.488-3.488h73.256c1.927,0,3.488,1.562,3.488,3.488   C-323.788,59.694-325.35,61.255-327.276,61.255z"/>
</g>
<g>
	<circle cx="-225.7" cy="20.979" r="20.93"/>
	<path d="M-202.227,48.265h-46.512c-15.032,0-27.262,11.754-27.262,26.203V100h16.279V79.056h4.651V100h58.139V79.056h4.651V100   H-176V74.468C-176,59.774-187.521,48.265-202.227,48.265z"/>
</g>
<g>
	<path d="M-469.626,13.938l-8.578,8.576l-5.203-5.202c-0.854-0.854-2.237-0.854-3.092,0c-0.854,0.854-0.854,2.238,0,3.093   l6.749,6.748c0.427,0.428,0.986,0.642,1.546,0.642s1.119-0.214,1.547-0.642l10.125-10.122c0.854-0.854,0.854-2.238,0-3.093   C-467.387,13.083-468.771,13.083-469.626,13.938z"/>
	<path d="M-477.1,0c-12.664,0-22.966,10.303-22.966,22.966c0,12.664,10.302,22.967,22.966,22.967   c12.662,0,22.967-10.303,22.967-22.967C-454.133,10.303-464.438,0-477.1,0z M-477.1,39.371c-9.047,0-16.404-7.358-16.404-16.405   c0-9.046,7.357-16.404,16.404-16.404c9.045,0,16.404,7.358,16.404,16.404C-460.695,32.013-468.055,39.371-477.1,39.371z"/>
	<circle cx="-530.593" cy="11.356" r="9.842"/>
	<path d="M-489.771,55.039h-22.339c-0.792,0-2.204-1.1-2.397-1.869l-5.588-22.238c-1.177-4.687-5.932-7.529-10.618-6.353   c-4.687,1.178-7.531,5.932-6.353,10.618l5.589,22.237c2.163,8.61,10.489,15.103,19.367,15.103h17.965v20.901   c0,3.623,2.937,6.562,6.562,6.562c3.624,0,6.562-2.938,6.562-6.562v-29.65C-481.021,58.957-484.938,55.039-489.771,55.039z"/>
	<path d="M-503.219,76.912h-10.827c-9.818,0-20.178-8.22-22.625-17.948l-5.133-20.427c-0.442-1.759-2.228-2.832-3.981-2.382   c-1.757,0.44-2.824,2.224-2.381,3.981l5.134,20.428c3.173,12.632,16.178,22.909,28.986,22.909h10.827   c1.812,0,3.281-1.469,3.281-3.28C-499.938,78.381-501.406,76.912-503.219,76.912z"/>
</g>
<g>
	<path d="M-489.649-113.61c0.655,0,1.187-0.53,1.187-1.186v-6.608c0-0.656-0.531-1.187-1.187-1.187h-28.965   c-0.656,0-1.187,0.53-1.187,1.187v39.063c0,0.656,0.531,1.187,1.187,1.187h29.711c0.655,0,1.187-0.53,1.187-1.187v-6.581   c0-0.656-0.531-1.187-1.187-1.187h-20.638v-8.26h18.426c0.655,0,1.187-0.53,1.187-1.187v-6.581c0-0.656-0.531-1.187-1.187-1.187   h-18.426v-6.288H-489.649z"/>
	<path d="M-513.986-47.836h-30.896v-83.046h83.046v52.716c1.949,1.043,3.818,2.226,5.559,3.567c0.541,0.417,1.057,0.845,1.56,1.276   v-57.56c0-3.931-3.188-7.118-7.118-7.118h-83.046c-3.932,0-7.118,3.188-7.118,7.118v83.046c0,3.931,3.186,7.118,7.118,7.118h37.188   C-510.3-42.944-512.432-45.361-513.986-47.836z"/>
	<path d="M-479.463-75.938c-0.484-0.054-0.978-0.083-1.477-0.083c-0.068,0-0.135,0.008-0.199,0.012   c-0.081,0-0.155-0.012-0.236-0.012c-15.723,0-28.471,11.98-28.471,19.012S-497.098-38-481.375-38   c15.726,0,28.475-10.678,28.475-19.01C-452.9-64.5-464.636-75.077-479.463-75.938z M-480.781-70.034   c4.09,0,7.396,3.308,7.396,7.398c0,4.088-3.307,7.397-7.396,7.397s-7.397-3.31-7.397-7.397   C-488.179-66.727-484.871-70.034-480.781-70.034z M-481.375-43.99c-11.812,0-21.392-8.207-21.392-13.02   c0-2.943,3.589-7.148,9.07-9.977c-0.501,1.414-0.786,2.925-0.786,4.506c0,7.48,6.063,13.543,13.543,13.543   c7.479,0,13.541-6.062,13.541-13.543c0-1.44-0.231-2.827-0.643-4.127c4.907,2.709,8.061,6.532,8.061,9.598   C-459.98-51.303-469.56-43.99-481.375-43.99z"/>
</g>
<g>
	<path d="M-109.021,50.023v-0.038h-0.771c-14.452,0-26.208,11.363-26.208,25.331V100h13.938c-1.006-2.063-1.573-4.323-1.573-6.697   v-4.421c-4.02-1.401-6.916-5.218-6.916-9.709c0-5.673,4.615-10.288,10.288-10.288c5.674,0,10.289,4.615,10.289,10.288   c0,4.491-2.897,8.308-6.916,9.709v4.421c0,2.511,1.164,4.851,3.077,6.697h19.971c2.427-2.44,3.931-5.801,3.931-9.508V70.201   C-100.544,69.612-109.021,60.801-109.021,50.023z"/>
	<path d="M-64.826,49.985h-1.478v0.038c0,10.005-7.309,18.316-16.862,19.931v20.538c0,3.435-0.866,6.671-2.385,9.508h25.991V79.753   h4.497V100h15.737V75.316C-39.325,61.112-50.527,49.985-64.826,49.985z"/>
	<path d="M-73.049,50.023v-0.038h-29.228v0.038c0,7.438,6.052,13.489,13.489,13.489h2.249C-79.1,63.513-73.049,57.462-73.049,50.023   z"/>
	<path d="M-87.52,41.593c11.175,0,20.234-9.059,20.234-20.234c0-0.38,0-0.38,0-0.38c-0.032-0.409-0.046-0.744-0.029-0.744   s0.029-2.023,0.029-4.497V4.496c0-2.473-2.023-4.496-4.497-4.496h-31.476c-2.473,0-4.496,2.023-4.496,4.496v11.241   c0,2.474,0.012,4.497,0.028,4.497s0.003,0.335-0.028,0.744c0,0,0,0,0,0.38C-107.754,32.534-98.695,41.593-87.52,41.593z"/>
</g>
</svg>