<svg xmlns="http://www.w3.org/2000/svg" xmlns:xlink="http://www.w3.org/1999/xlink" version="1.1" id="Your_Icon" x="0px" y="0px" width="100px" height="100px" viewBox="0 0 100 100" enable-background="new 0 0 100 100" xml:space="preserve">
<g>
	<g>
		<g>
		</g>
	</g>
	<g>
	</g>
</g>
<g>
	<path fill="#000000" d="M57.937,40.316l0.357-0.342l2.73-1.578l-3.961-1.029l0.107-0.512l-0.403-0.213l1.007-1.667L16.747,46.57   l-3.625,1.135c-0.394,0.052-2.148,0.357-2.998,1.685c-0.54,0.843-0.602,1.882-0.183,3.09c0.497,1.433,1.588,2.222,3.073,2.222   c0.847,0,1.583-0.262,1.805-0.35l2.358-0.532l41.925-12.285L57.937,40.316z M18.016,47.613l0.632-0.178   c-0.106,0.913-0.007,2.409,1.104,4.225l-0.692,0.202C17.484,49.556,17.905,47.938,18.016,47.613z M20.111,47.021l0.599-0.169   c-0.062,0.961,0.117,2.422,1.24,4.164l-0.851,0.25C19.455,48.82,20.054,47.163,20.111,47.021z M22.117,46.455l0.623-0.176   c-0.098,0.917,0.018,2.396,1.11,4.18l-0.536,0.157C21.869,48.577,21.981,47.055,22.117,46.455z M14.467,53.048l-0.121,0.039   c-0.006,0.003-0.627,0.265-1.333,0.265c-0.915,0-1.486-0.418-1.798-1.314c-0.275-0.795-0.262-1.439,0.042-1.916   c0.583-0.917,2.06-1.082,2.073-1.083l1.082-0.334c-0.052,0.955,0.14,2.383,1.224,4.081L14.467,53.048z M17.044,52.453   c-1.46-2.043-1.359-3.572-1.226-4.184l0.745-0.23c-0.096,0.929,0.027,2.422,1.146,4.22L17.044,52.453z M56.592,40.863   l-31.396,9.201c-1.533-2.28-1.116-3.875-1.006-4.196l30.722-8.682l0.729,0.386l-0.164,0.778l2.021,0.525l-1.473,1.397   L56.592,40.863z"/>
	<path fill="#000000" d="M79.257,60.646l-24.309-13.56l-0.553,0.604l-2.313-0.5l0.716,2.235l-0.734,0.534l1.095,1.26l-0.841,0.772   l1.215,1.663l22.252,13.123l14.769,4.363L79.257,60.646z M84.811,67.649c-0.074,0.105-0.139,0.219-0.195,0.341l-7.854-2.31   c-0.021-0.805,0.148-2.628,1.936-3.713L84.811,67.649z M54.118,52.17l0.919-0.845l-0.989-1.139l0.334-0.243l-0.302-0.94l0.788,0.17   l0.355-0.388L77.47,61.173c-1.402,1.09-1.928,2.608-2.042,3.828l-20.97-12.367L54.118,52.17z"/>
	<ellipse fill="#000000" cx="62.985" cy="43.634" rx="0.539" ry="0.597"/>
	<ellipse fill="#000000" cx="66.559" cy="44.017" rx="0.537" ry="0.598"/>
	<ellipse fill="#000000" cx="64.107" cy="48.403" rx="0.538" ry="0.598"/>
	<ellipse fill="#000000" cx="55.787" cy="44.804" rx="0.539" ry="0.599"/>
	<circle fill="#000000" cx="65.289" cy="36.815" r="0.672"/>
	<circle fill="#000000" cx="68.178" cy="41.586" r="0.874"/>
	<circle fill="#000000" cx="64.146" cy="39.974" r="0.471"/>
</g>
</svg>