<svg xmlns="http://www.w3.org/2000/svg" xmlns:xlink="http://www.w3.org/1999/xlink" version="1.1" x="0px" y="0px" width="100px" height="100px" viewBox="0 0 100 100" enable-background="new 0 0 100 100" xml:space="preserve">
<g id="Captions">
</g>
<g id="Your_Icon">
	<path d="M85.874,4.132H14.126c-5.511,0-9.994,4.482-9.994,9.994v71.747c0,5.511,4.483,9.995,9.994,9.995h71.748   c5.511,0,9.994-4.484,9.994-9.995V14.126C95.868,8.614,91.385,4.132,85.874,4.132z M62.198,10.408L50,22.605L37.802,10.408H62.198z    M14.126,10.408h3.952L50,42.33l31.922-31.922h3.952c2.05,0,3.718,1.667,3.718,3.718v8.096L50,61.813L10.408,22.222v-8.096   C10.408,12.075,12.076,10.408,14.126,10.408z M89.592,41.946v18.39L60.336,89.592H39.664L10.408,60.336v-18.39L50,81.537   L89.592,41.946z M10.408,85.873V80.06l9.531,9.532h-5.813C12.076,89.592,10.408,87.923,10.408,85.873z M85.874,89.592h-5.813   l9.531-9.532v5.813C89.592,87.923,87.924,89.592,85.874,89.592z"/>
</g>
</svg>