<svg xmlns="http://www.w3.org/2000/svg" xmlns:xlink="http://www.w3.org/1999/xlink" version="1.1" id="Layer_1" x="0px" y="0px" width="100px" height="100px" viewBox="0 0 100 100" enable-background="new 0 0 100 100" xml:space="preserve">
<g>
	<path d="M15.373,10.784L100,18.674v-0.026l-7.662,42.137H29.032l-2.275,5.377h0.001c2.26,0.923,4.036,2.787,4.84,5.105   l-0.002,0.002h47.768h-0.001c1.158-3.341,4.332-5.738,8.067-5.738c4.715,0,8.536,3.821,8.536,8.536   c0,4.714-3.821,8.536-8.536,8.536c-4.154,0-7.616-2.968-8.38-6.899h0.001H31.911h0c-0.764,3.932-4.225,6.899-8.379,6.899   c-4.714,0-8.536-3.822-8.536-8.536c0-3.994,2.742-7.346,6.445-8.278l2.55-5.407L9.084,5.342H0V0h12.398L15.373,10.784z"/>
</g>
</svg>