<svg xmlns="http://www.w3.org/2000/svg" xmlns:xlink="http://www.w3.org/1999/xlink" version="1.1" id="Layer_1" x="0px" y="0px" width="50px" height="50px" viewBox="0 0 50 50" enable-background="new 0 0 50 50" xml:space="preserve">
<g>
	<path fill="#000000" d="M17.404,32.591c1.233,1.23,1.233,3.223,0,4.451c-1.223,1.229-3.214,1.229-4.447,0   c-1.226-1.229-1.226-3.221,0-4.446C14.189,31.367,16.181,31.367,17.404,32.591z"/>
	<path fill="#000000" d="M30.496,19.502c1.229,1.23,1.229,3.222,0,4.448c-1.229,1.23-3.221,1.23-4.45,0   c-1.227-1.227-1.227-3.218,0-4.443C27.275,18.276,29.27,18.276,30.496,19.502z"/>
	<path fill="#000000" d="M37.044,12.958c1.226,1.226,1.226,3.219,0,4.449c-1.233,1.225-3.223,1.225-4.448,0   c-1.232-1.227-1.232-3.22,0-4.449C33.823,11.731,35.811,11.731,37.044,12.958z"/>
	<path fill="#000000" d="M43.586,6.413c1.23,1.229,1.23,3.222,0,4.447c-1.225,1.229-3.218,1.229-4.448,0   c-1.226-1.225-1.226-3.218,0.003-4.446C40.368,5.185,42.361,5.185,43.586,6.413z"/>
	<path fill="#000000" d="M10.858,39.14c1.23,1.229,1.23,3.219,0.006,4.448c-1.232,1.227-3.225,1.227-4.451,0   c-1.229-1.229-1.229-3.22,0-4.448C7.64,37.911,9.632,37.911,10.858,39.14z"/>
	<path fill="#000000" d="M11.007,26.192c1.226,1.23,1.226,3.223,0,4.449c-1.229,1.229-3.22,1.229-4.447,0   c-1.232-1.229-1.232-3.219,0-4.449C7.786,24.967,9.778,24.967,11.007,26.192z"/>
	<path fill="#000000" d="M23.556,38.745c1.229,1.225,1.229,3.219,0,4.447c-1.229,1.228-3.22,1.228-4.447-0.002   c-1.227-1.227-1.227-3.221,0-4.445C20.336,37.516,22.325,37.516,23.556,38.745z"/>
	<g>
		<path fill="#000000" d="M23.953,26.049c1.227,1.23,1.227,3.219,0,4.449c-1.23,1.229-3.225,1.229-4.452,0    c-1.226-1.226-1.226-3.219,0.002-4.449C20.732,24.82,22.723,24.82,23.953,26.049z"/>
		<circle fill="#000000" cx="9.218" cy="15.764" r="3.145"/>
		<path fill="#000000" d="M17.698,19.792c1.226,1.23,1.226,3.221,0,4.45c-1.23,1.229-3.224,1.229-4.452,0    c-1.226-1.229-1.226-3.22,0-4.45C14.475,18.565,16.468,18.565,17.698,19.792z"/>
		<circle fill="#000000" cx="34.238" cy="40.783" r="3.146"/>
		<path fill="#000000" d="M30.208,32.302c1.228,1.23,1.228,3.225,0,4.45c-1.23,1.229-3.224,1.229-4.448,0    c-1.231-1.226-1.231-3.22,0-4.45C26.984,31.077,28.978,31.077,30.208,32.302z"/>
	</g>
</g>
</svg>