<svg xmlns="http://www.w3.org/2000/svg" xmlns:xlink="http://www.w3.org/1999/xlink" version="1.1" id="Layer_1" x="0px" y="0px" width="100px" height="100px" viewBox="0 0 100 100" enable-background="new 0 0 100 100" xml:space="preserve">
<g>
	<path fill="#000000" d="M49.584,6.334c-22.562,0-40.917,18.355-40.917,40.916c0,22.562,18.355,40.917,40.917,40.917   c22.56,0,40.916-18.355,40.916-40.917C90.5,24.689,72.145,6.334,49.584,6.334z M49.584,83.24   c-19.845,0-35.991-16.146-35.991-35.991c0-2.871,0.348-5.661,0.986-8.339c2.812-0.903,8.498-4.359,19.815-13.692l5.199-5.201   c0,0,13.544,26.239,44.525,17.124c0.939,3.209,1.454,6.599,1.454,10.108C85.573,67.095,69.43,83.24,49.584,83.24z"/>
	<circle fill="#000000" cx="36.446" cy="48.892" r="5.884"/>
	<circle fill="#000000" cx="62.72" cy="48.893" r="5.885"/>
	<path fill="#000000" d="M68.289,60.22c0,1.456,1.184,2.642,2.642,2.642c1.459,0,2.642-1.186,2.642-2.642   c0-1.459-2.642-5.59-2.642-5.59S68.289,58.761,68.289,60.22z"/>
	<path fill="#000000" d="M50.272,66.819c-7.06,0-12.59,3.427-12.59,7.8c0,0.908,0.734,1.643,1.642,1.643s1.642-0.734,1.642-1.643   c0-2.136,3.821-4.516,9.306-4.516c5.484,0,9.306,2.38,9.306,4.516c0,0.908,0.734,1.643,1.643,1.643   c0.907,0,1.642-0.734,1.642-1.643C62.862,70.246,57.332,66.819,50.272,66.819z"/>
</g>
</svg>