<svg xmlns="http://www.w3.org/2000/svg" xmlns:xlink="http://www.w3.org/1999/xlink" version="1.1" id="Layer_1" x="0px" y="0px" width="100px" height="100px" viewBox="0 0 100 100" enable-background="new 0 0 100 100" xml:space="preserve">
<path d="M51.227,62.215c2.988,0,15.536,1.337,19.207,10.229c0-10.08-3.654-15.388-7.812-18.182  c2.642-17.239,4.905-38.516-11.396-51.296h-0.045C34.874,15.754,37.148,37.046,39.791,54.29c-4.141,2.801-7.772,8.106-7.772,18.154  C35.689,63.552,48.238,62.215,51.227,62.215z M51.091,15.204c1.671,0,3.025,1.354,3.025,3.024c0,1.671-1.354,3.026-3.025,3.026  s-3.025-1.355-3.025-3.026C48.065,16.559,49.42,15.204,51.091,15.204z M51.091,24.337c2.025,0,3.667,1.642,3.667,3.666  c0,2.025-1.642,3.668-3.667,3.668s-3.667-1.643-3.667-3.668C47.424,25.979,49.065,24.337,51.091,24.337z M51.091,35.211  c2.532,0,4.583,2.053,4.583,4.583c0,2.532-2.051,4.585-4.583,4.585c-2.532,0-4.583-2.053-4.583-4.585  C46.507,37.264,48.559,35.211,51.091,35.211z"/>
<path d="M44.046,67.778c0,0,0.107,0.399,0.246,1.098c0.07,0.35,0.146,0.773,0.227,1.26c0.08,0.486,0.159,1.035,0.236,1.633  c0.076,0.599,0.148,1.248,0.212,1.935c0.063,0.686,0.122,1.408,0.167,2.156c0.093,1.496,0.138,3.092,0.14,4.688  c0,1.596-0.044,3.192-0.137,4.688c-0.045,0.749-0.104,1.472-0.167,2.158c-0.064,0.686-0.137,1.333-0.213,1.932  c-0.077,0.599-0.157,1.148-0.237,1.635c-0.081,0.486-0.157,0.91-0.228,1.259c-0.139,0.698-0.247,1.097-0.247,1.097  s-0.108-0.398-0.247-1.097c-0.07-0.349-0.147-0.772-0.228-1.259c-0.08-0.486-0.16-1.036-0.237-1.635  c-0.076-0.599-0.148-1.246-0.213-1.932c-0.062-0.687-0.122-1.409-0.167-2.158c-0.092-1.496-0.136-3.093-0.137-4.688  c0.002-1.597,0.047-3.192,0.14-4.688c0.045-0.748,0.104-1.471,0.167-2.156c0.064-0.687,0.136-1.336,0.212-1.935  c0.077-0.598,0.157-1.146,0.236-1.633s0.156-0.91,0.226-1.26C43.939,68.178,44.046,67.778,44.046,67.778z M57.798,68.876  c-0.071,0.35-0.147,0.773-0.227,1.26s-0.159,1.035-0.236,1.633c-0.075,0.599-0.147,1.248-0.212,1.935  c-0.062,0.686-0.123,1.408-0.168,2.156c-0.093,1.496-0.137,3.092-0.14,4.688c0.001,1.596,0.045,3.192,0.137,4.688  c0.044,0.749,0.104,1.472,0.167,2.158c0.064,0.686,0.137,1.333,0.212,1.932c0.079,0.599,0.158,1.148,0.237,1.635  c0.08,0.486,0.157,0.91,0.229,1.259c0.139,0.698,0.247,1.097,0.247,1.097s0.107-0.398,0.245-1.097  c0.07-0.349,0.148-0.772,0.229-1.259s0.16-1.036,0.236-1.635c0.077-0.599,0.149-1.246,0.214-1.932  c0.062-0.687,0.121-1.409,0.165-2.158c0.093-1.496,0.137-3.093,0.137-4.688c-0.001-1.597-0.045-3.192-0.139-4.688  c-0.045-0.748-0.105-1.471-0.166-2.156c-0.064-0.687-0.139-1.336-0.213-1.935c-0.077-0.598-0.157-1.146-0.236-1.633  c-0.08-0.486-0.157-0.91-0.229-1.26c-0.136-0.698-0.243-1.098-0.243-1.098S57.936,68.178,57.798,68.876z M50.799,72.56  c-0.07,0.35-0.146,0.773-0.226,1.26s-0.159,1.034-0.236,1.633c-0.076,0.599-0.149,1.248-0.213,1.934  c-0.062,0.687-0.122,1.409-0.167,2.156c-0.093,1.497-0.138,3.093-0.14,4.689c0,1.596,0.044,3.191,0.137,4.688  c0.044,0.749,0.104,1.472,0.166,2.157c0.065,0.687,0.138,1.334,0.213,1.933c0.077,0.599,0.157,1.148,0.237,1.635  s0.157,0.91,0.228,1.258C50.938,96.601,51.045,97,51.045,97s0.107-0.399,0.246-1.098c0.071-0.348,0.148-0.771,0.229-1.258  s0.159-1.036,0.236-1.635c0.076-0.599,0.148-1.246,0.213-1.933c0.062-0.686,0.122-1.408,0.166-2.157  c0.093-1.497,0.137-3.093,0.137-4.688c-0.002-1.597-0.047-3.192-0.139-4.689c-0.046-0.747-0.105-1.47-0.168-2.156  c-0.063-0.686-0.136-1.335-0.211-1.934c-0.078-0.599-0.158-1.146-0.236-1.633c-0.08-0.486-0.157-0.91-0.228-1.26  c-0.138-0.698-0.245-1.098-0.245-1.098S50.938,71.861,50.799,72.56z"/>
</svg>